<?xml version="1.0" encoding="UTF-8"?>
<svg width="200px" height="200px" viewBox="0 0 200 200" version="1.1" xmlns="http://www.w3.org/2000/svg" xmlns:xlink="http://www.w3.org/1999/xlink">
    <title>logo</title>
    <defs>
        <linearGradient x1="50%" y1="0%" x2="50%" y2="100%" id="linearGradient-1">
            <stop stop-color="#3CC2FB" offset="0%"></stop>
            <stop stop-color="#1C8FF6" offset="100%"></stop>
        </linearGradient>
    </defs>
    <g id="logo" stroke="none" stroke-width="1" fill="none" fill-rule="evenodd">
        <g id="编组-2">
            <rect id="矩形" fill="url(#linearGradient-1)" x="0" y="0" width="200" height="200" rx="30"></rect>
            <g id="编组" transform="translate(12.000000, 72.000000)">
                <polygon id="Fill-1" fill="#FFFFFF" points="56.3149053 9.88013567 55.991724 9.88013567 49.2692444 9.88013567 48.3804959 9.88013567 45.7013848 9.88013567 47.5709988 11.5974222 48.1911158 12.1676211 50.0885193 13.9116678 36.0013146 44.3987789 35.8037006 44.8279719 35.2062269 46.1196678 36.576145 46.1196678 37.031069 46.1196678 43.4833731 46.1196678 43.7108351 46.1196678 66.3587415 46.1196678 66.5867181 46.1196678 67.2727064 46.1196678 67.5747883 45.4661006 67.6751392 45.248931 68.4542737 43.5630363 68.4558175 43.5630363 68.4928702 43.4822409 68.4933848 43.4786386 70.4232094 39.3019836 70.6568468 38.7966269 70.8549754 38.3674339 73.4095485 32.8383579 73.4110924 32.8388725 73.4538058 32.7441825 73.4543205 32.7405801 76.4365427 26.2877614 76.6341567 25.8595977 77.2316304 24.5679018 75.8622269 24.5679018 75.4073029 24.5679018 61.6947415 24.5679018 61.4672795 24.5679018 60.7812912 24.5679018 60.4792094 25.221469 60.3788585 25.4376094 58.7933146 28.8680655 56.5588351 33.6133754 62.4615251 33.6133754 62.7841918 33.6133754 63.7568234 33.6133754 63.757338 33.611317 63.8618058 33.611317 62.2608234 37.075738 48.5760515 37.075738 56.9566363 18.9384749 78.9185544 18.9384749 79.1460164 18.9384749 79.8314901 18.9384749 80.1340865 18.2849076 80.2344374 18.0682526 83.216145 11.6154339 83.4137591 11.1867556 83.9273497 10.0741474 85.6008936 11.6123462 86.2210105 12.1820304 88.2542737 14.0506152 74.2319111 44.3987789 74.0327532 44.8279719 73.4357942 46.1196678 74.8062269 46.1196678 75.2601216 46.1196678 76.6238643 46.1196678 77.0782737 46.1196678 81.7129404 46.1196678 81.940917 46.1196678 102.904473 46.1196678 103.132449 46.1196678 107.267935 37.075738 106.970999 37.075738 106.516589 37.075738 86.8056187 37.075738 89.0545076 32.2094924 104.42363 32.2094924 104.42466 32.2058901 104.652122 32.2058901 105.339139 32.2048608 105.639163 31.5559251 105.740028 31.3392702 108.721221 24.8859368 108.918835 24.4577731 109.51528 23.1660772 108.146905 23.1660772 107.692496 23.1660772 93.2332211 23.1660772 95.1862035 18.9384749 114.735069 18.9384749 114.962016 18.9384749 115.649034 18.9384749 115.950087 18.2890246 116.050437 18.071855 116.050952 18.0682526 119.032145 11.6154339 119.230788 11.1867556 119.66873 10.2383111 121.164215 11.6123462 121.784332 12.1820304 123.157338 13.4438784 121.413291 17.2181006 121.215163 17.6467789 120.617689 18.9384749 121.988122 18.9384749 122.442016 18.9384749 129.942087 18.9384749 118.177876 44.3987789 117.979747 44.8279719 117.382274 46.1196678 118.752192 46.1196678 119.207116 46.1196678 125.65942 46.1196678 125.887396 46.1196678 126.573385 46.1196678 126.875467 45.4661006 126.975818 45.248931 139.132683 18.9384749 147.539513 18.9384749 147.766975 18.9384749 148.453993 18.9384749 148.754016 18.2890246 148.854882 18.071855 148.855911 18.0682526 151.837104 11.6154339 152.035233 11.1867556 152.565291 10.038124 154.277946 11.6118316 154.898063 12.1820304 157.123794 14.2276444 143.173478 44.4193637 142.97535 44.8480421 142.378391 46.139738 143.747794 46.139738 144.202204 46.139738 150.655022 46.139738 150.882999 46.139738 151.568987 46.139738 151.871069 45.4861708 151.97142 45.2695158 167.521174 11.6154339 167.719818 11.1867556 168.316777 9.89505965 166.947373 9.89505965 166.492964 9.89505965 163.585876 9.89505965 163.585876 9.89454503 162.613244 9.89454503 162.290578 9.89454503 155.976192 9.89454503 155.086929 9.89454503 152.408847 9.89454503 152.409361 9.89505965 151.262274 9.89505965 150.807864 9.89505965 127.200192 9.89505965 126.877011 9.89505965 125.482905 9.89505965 122.862975 9.89505965 121.973712 9.89505965 119.827747 9.89505965 119.29563 9.89505965 118.457829 9.89505965 118.00342 9.89505965 97.9955135 9.89505965 97.5405895 9.89505965 95.1995836 9.89505965 94.876917 9.89505965 92.6784608 9.89505965 91.0882854 9.89505965 90.8603088 9.89505965 87.2991392 9.89505965 86.4103906 9.89505965 84.0102035 9.89505965 83.7323088 9.89505965 82.6413146 9.89505965 82.1869053 9.89505965 59.7659462 9.89505965 59.3110222 9.89505965 57.2854784 9.89505965 57.2875368 9.88013567"></polygon>
                <path d="M63.1483368,1.05280936 L81.036524,0.879382456 L81.3921263,0.571125146 L63.9254129,0.37814269 L63.1483368,1.05280936 Z M60.3940912,3.44373333 L78.2817637,3.27030643 L78.6914012,2.91521871 L61.2246877,2.72223626 L60.3940912,3.44373333 Z M57.6398456,5.83414269 L75.5280327,5.66071579 L75.9896468,5.2598269 L58.5239626,5.06632982 L57.6398456,5.83414269 Z M54.8856,8.22455205 L72.7737871,8.05163977 L73.2889216,7.60392047 L55.8232374,7.41093801 L54.8856,8.22455205 Z M46.6233778,15.3968094 L46.8966409,15.3942363 L47.0772725,15.0026105 L46.6233778,15.3968094 Z M43.8691322,17.7872187 L45.7994713,17.7686924 L46.2461614,16.8022363 L45.0198222,16.7883415 L43.8691322,17.7872187 Z M41.1148865,20.1781427 L44.7023018,20.1431485 L45.1546526,19.1643415 L42.3190971,19.1324351 L41.1148865,20.1781427 Z M38.3611556,22.568552 L43.6051322,22.5176047 L44.0631439,21.5264468 L39.6183719,21.4770433 L38.3611556,22.568552 Z M35.6069099,24.9589614 L42.507448,24.8925754 L42.9711205,23.888552 L36.9171322,23.8216515 L35.6069099,24.9589614 Z M32.8526643,27.3498854 L41.4102784,27.2670316 L41.8806409,26.2506573 L34.2169216,26.165745 L32.8526643,27.3498854 Z M30.0448982,29.7871251 L40.2920094,29.6878035 L40.7891322,28.6127626 L31.5161965,28.5103532 L30.0448982,29.7871251 Z M27.290138,32.1785637 L39.1948398,32.0632889 L39.6760094,31.0211836 L28.7624655,30.900248 L27.290138,32.1785637 Z M24.536407,34.5689731 L38.0971556,34.437745 L38.5845006,33.3832889 L26.0612257,33.2448561 L24.536407,34.5689731 Z M21.7816468,36.9593825 L36.999986,36.8122012 L37.4929918,35.7459088 L23.3605006,35.5889497 L21.7816468,36.9593825 Z M19.0279158,39.3497918 L35.9028164,39.1871719 L36.401483,38.108014 L20.6602901,37.9335579 L19.0279158,39.3497918 Z M16.2741848,41.7407158 L34.1618573,41.5672889 L35.2312374,40.6389146 L35.3099743,40.4696047 L17.9590503,40.2781661 L16.2741848,41.7407158 Z M13.5199392,44.1316398 L31.4081263,43.9582129 L32.7250386,42.8152421 L15.2583251,42.6222596 L13.5199392,44.1316398 Z M10.7656936,46.5220491 L28.6543953,46.3486222 L30.0243135,45.1598503 L12.5576,44.9668678 L10.7656936,46.5220491 Z M8.01144795,48.9129731 L25.8991205,48.7395462 L27.3230737,47.5039439 L9.85687485,47.3109614 L8.01144795,48.9129731 Z M5.25668772,51.3033825 L23.1453895,51.1304702 L24.6223485,49.848552 L7.15563509,49.6555696 L5.25668772,51.3033825 Z M3.09322573,53.1822596 L2.50295673,53.6943064 L20.3916585,53.5208795 L21.9216234,52.1926456 L4.45439532,51.9996632 L3.09322573,53.1822596 Z M0.888079532,55.096131 L-0.000154385965,55.866517 L2.72733099,55.866517 L4.0915883,55.866517 L17.1243368,55.866517 L17.3121731,55.866517 L17.6888749,55.866517 L17.9786058,55.6153825 L18.1226994,55.4898152 L19.2203836,54.5372538 L1.7541848,54.3442713 L0.888079532,55.096131 Z" id="Fill-2" fill="#91C21E"></path>
                <path d="M16.3981053,1.5011462 L37.5052398,1.30095906 L37.1872047,0.52697076 L37.0570058,0.210479532 L37.0034854,0.0807953216 L14.7652164,0 L16.3981053,1.5011462 Z M18.9454737,3.84215205 L38.6111579,3.64145029 L38.0759532,2.45782456 L17.199883,2.23808187 L18.9454737,3.84215205 Z M21.4825497,6.17338012 L39.6769357,5.99583626 L39.1551111,4.8425731 L19.8100351,4.63672515 L21.4825497,6.17338012 Z M23.1267602,7.68481871 L24.0278596,8.51232749 L40.7051462,8.37338012 L40.2414737,7.24430409 L22.4294503,7.04360234 L23.1267602,7.68481871 Z M25.1888421,10.8867836 L41.7724678,10.7293099 L41.3211462,9.63059649 L24.5460819,9.46643275 L25.1888421,10.8867836 Z M26.2489591,13.2303626 L42.8202339,13.0435556 L42.3812632,11.9752047 L25.6144327,11.8275088 L26.2489591,13.2303626 Z M27.3137076,15.5837193 L42.6365146,15.4349942 L43.5901053,14.6471111 L43.4743158,14.3908304 L26.693076,14.2117427 L27.3137076,15.5837193 Z M28.3779415,17.9375906 L39.8827836,17.8259181 L41.1271345,16.745731 L27.7722339,16.5980351 L28.3779415,17.9375906 Z M29.4426901,20.291462 L37.1280234,20.2168421 L38.4264094,19.0898246 L28.8519064,18.9843275 L29.4426901,20.291462 Z M30.5084678,22.6448187 L34.3742924,22.6072515 L35.7256842,21.4344327 L29.9315789,21.3701053 L30.5084678,22.6448187 Z M31.0848421,23.9200468 L31.5804211,25.0156725 L32.402269,24.3188772 L32.9297544,23.8608655 L33.0249591,23.7785263 L31.0107368,23.7563977 L31.0848421,23.9200468 Z M42.2418012,48.5816608 L58.8974737,48.4200702 L58.6417076,47.850386 L41.8316491,47.6754152 L42.2418012,48.5816608 Z M41.3314386,50.9622924 L59.9529591,50.7739415 L59.7116023,50.2361637 L42.3864094,50.0457544 L41.3314386,50.9622924 Z M38.5854269,53.3460117 L61.0079298,53.1272982 L60.7814971,52.6219415 L39.6872281,52.389848 L38.5854269,53.3460117 Z M35.6819415,55.8666199 L62.2373567,55.8666199 L61.8637427,55.0396257 L36.9875322,54.7334269 L35.6819415,55.8666199 Z" id="Fill-3" fill="#91C21E"></path>
            </g>
        </g>
    </g>
</svg>