<?xml version="1.0" encoding="UTF-8"?>
<svg width="512px" height="512px" viewBox="0 0 512 512" version="1.1" xmlns="http://www.w3.org/2000/svg" xmlns:xlink="http://www.w3.org/1999/xlink">
    <title>pro_icon</title>
    <defs>
        <path d="M68.259,193.83 C77.531,193.83 85.766,192.854 92.964,190.902 C100.162,188.95 106.201,185.5035 111.081,180.5625 C115.961,175.6215 119.6515,168.942 122.1525,160.524 C124.6535,152.106 125.904,141.431 125.904,128.499 C125.904,115.567 124.6535,104.892 122.1525,96.474 C119.6515,88.056 115.961,81.3765 111.081,76.4355 C106.201,71.4945 100.162,68.048 92.964,66.096 C85.766,64.144 77.531,63.168 68.259,63.168 C59.109,63.168 50.935,64.144 43.737,66.096 C36.539,68.048 30.5,71.4945 25.62,76.4355 C20.74,81.3765 17.019,88.056 14.457,96.474 C11.895,104.892 10.614,115.567 10.614,128.499 C10.614,141.431 11.895,152.106 14.457,160.524 C17.019,168.942 20.74,175.6215 25.62,180.5625 C30.5,185.5035 36.539,188.95 43.737,190.902 C50.935,192.854 59.109,193.83 68.259,193.83 Z M68.259,170.589 C62.403,170.589 57.645,169.857 53.985,168.393 C50.325,166.929 47.458,164.55 45.384,161.256 C43.31,157.962 41.8765,153.631 41.0835,148.263 C40.2905,142.895 39.894,136.307 39.894,128.499 C39.894,120.813 40.2905,114.2555 41.0835,108.8265 C41.8765,103.3975 43.31,98.975 45.384,95.559 C47.458,92.143 50.325,89.6725 53.985,88.1475 C57.645,86.6225 62.403,85.86 68.259,85.86 C74.115,85.86 78.9035,86.6225 82.6245,88.1475 C86.3455,89.6725 89.243,92.143 91.317,95.559 C93.391,98.975 94.8245,103.3975 95.6175,108.8265 C96.4105,114.2555 96.807,120.813 96.807,128.499 C96.807,136.307 96.4105,142.895 95.6175,148.263 C94.8245,153.631 93.391,157.962 91.317,161.256 C89.243,164.55 86.3455,166.929 82.6245,168.393 C78.9035,169.857 74.115,170.589 68.259,170.589 Z M177.876,192 L177.876,92.082 L178.974,92.082 L203.13,168.027 L230.946,168.027 L255.468,92.082 L256.566,92.082 L256.566,192 L284.016,192 L284.016,64.998 L240.096,64.998 L218.136,136.551 L217.038,136.551 L195.993,64.998 L150.792,64.998 L150.792,192 L177.876,192 Z M345.138,193.83 C362.584,193.83 375.089,190.5665 382.653,184.0395 C390.217,177.5125 393.999,168.027 393.999,155.583 C393.999,149.605 393.511,144.5115 392.535,140.3025 C391.559,136.0935 389.6985,132.4335 386.9535,129.3225 C384.2085,126.2115 380.4265,123.5275 375.6075,121.2705 C370.7885,119.0135 364.597,116.97 357.033,115.14 C352.397,114.042 348.6455,113.005 345.7785,112.029 C342.9115,111.053 340.7155,109.9855 339.1905,108.8265 C337.6655,107.6675 336.659,106.356 336.171,104.892 C335.683,103.428 335.439,101.659 335.439,99.585 C335.439,94.217 337.0555,90.618 340.2885,88.788 C343.5215,86.958 348.737,86.043 355.935,86.043 C358.619,86.043 361.4555,86.165 364.4445,86.409 C367.4335,86.653 370.392,87.019 373.32,87.507 C376.248,87.995 378.932,88.5135 381.372,89.0625 C383.812,89.6115 385.825,90.13 387.411,90.618 L387.411,90.618 L387.411,67.743 C383.995,66.523 379.5115,65.4555 373.9605,64.5405 C368.4095,63.6255 362.035,63.168 354.837,63.168 C340.075,63.168 328.6375,66.0045 320.5245,71.6775 C312.4115,77.3505 308.355,86.897 308.355,100.317 C308.355,106.051 308.904,110.87 310.002,114.774 C311.1,118.678 312.991,122.0025 315.675,124.7475 C318.359,127.4925 321.9275,129.8105 326.3805,131.7015 C330.8335,133.5925 336.476,135.331 343.308,136.917 C348.188,138.137 352.1225,139.296 355.1115,140.394 C358.1005,141.492 360.4185,142.712 362.0655,144.054 C363.7125,145.396 364.841,146.921 365.451,148.629 C366.061,150.337 366.366,152.411 366.366,154.851 C366.366,157.657 366,160.036 365.268,161.988 C364.536,163.94 363.2855,165.526 361.5165,166.746 C359.7475,167.966 357.4295,168.82 354.5625,169.308 C351.6955,169.796 348.188,170.04 344.04,170.04 C340.746,170.04 337.4215,169.8875 334.0665,169.5825 C330.7115,169.2775 327.448,168.9115 324.276,168.4845 C321.104,168.0575 318.115,167.539 315.309,166.929 C312.503,166.319 310.124,165.648 308.172,164.916 L308.172,164.916 L308.172,189.255 C312.076,190.353 317.3525,191.39 324.0015,192.366 C330.6505,193.342 337.696,193.83 345.138,193.83 Z" id="path-1"></path>
    </defs>
    <g id="pro_icon" stroke="none" stroke-width="1" fill="none" fill-rule="evenodd">
        <g id="pro_icon(1)" transform="translate(54.000000, 131.000000)" fill="#000000" fill-rule="nonzero">
            <g id="OMS">
                <use xlink:href="#path-1"></use>
                <use xlink:href="#path-1"></use>
            </g>
        </g>
    </g>
</svg>